<mxfile host="Electron" modified="2023-08-01T07:55:41.149Z" agent="Mozilla/5.0 (Macintosh; Intel Mac OS X 10_15_7) AppleWebKit/537.36 (KHTML, like Gecko) draw.io/21.6.5 Chrome/114.0.5735.243 Electron/25.3.1 Safari/537.36" etag="-pCSHQy3ToemmxMtZEwq" version="21.6.5" type="device">
  <diagram name="第 1 页" id="KNfhmEwewk5L5ZBhB_XR">
    <mxGraphModel dx="1194" dy="674" grid="1" gridSize="10" guides="1" tooltips="1" connect="1" arrows="1" fold="1" page="1" pageScale="1" pageWidth="827" pageHeight="1169" math="0" shadow="0">
      <root>
        <mxCell id="0" />
        <mxCell id="1" parent="0" />
        <mxCell id="OBhn1XiLiMjXEsDXxtLZ-1" value="Textbox" style="rounded=0;whiteSpace=wrap;html=1;" parent="1" vertex="1">
          <mxGeometry x="35" y="220" width="320" height="60" as="geometry" />
        </mxCell>
        <mxCell id="OBhn1XiLiMjXEsDXxtLZ-2" value="Non-updated Article" style="text;html=1;align=center;verticalAlign=middle;resizable=0;points=[];autosize=1;strokeColor=none;fillColor=none;" parent="1" vertex="1">
          <mxGeometry x="35" y="190" width="130" height="30" as="geometry" />
        </mxCell>
        <mxCell id="OBhn1XiLiMjXEsDXxtLZ-3" value="Textbox" style="rounded=0;whiteSpace=wrap;html=1;" parent="1" vertex="1">
          <mxGeometry x="35" y="330" width="320" height="60" as="geometry" />
        </mxCell>
        <mxCell id="OBhn1XiLiMjXEsDXxtLZ-4" value="Triggered News Event" style="text;html=1;align=center;verticalAlign=middle;resizable=0;points=[];autosize=1;strokeColor=none;fillColor=none;" parent="1" vertex="1">
          <mxGeometry x="35" y="300" width="140" height="30" as="geometry" />
        </mxCell>
        <mxCell id="OBhn1XiLiMjXEsDXxtLZ-6" value="Clear (btn)" style="rounded=1;whiteSpace=wrap;html=1;" parent="1" vertex="1">
          <mxGeometry x="55" y="430" width="120" height="30" as="geometry" />
        </mxCell>
        <mxCell id="OBhn1XiLiMjXEsDXxtLZ-7" value="Submit (btn)" style="rounded=1;whiteSpace=wrap;html=1;" parent="1" vertex="1">
          <mxGeometry x="220" y="430" width="120" height="30" as="geometry" />
        </mxCell>
        <mxCell id="OBhn1XiLiMjXEsDXxtLZ-8" value="Textbox&lt;br&gt;(Highlight the updated paragraphs)" style="rounded=0;whiteSpace=wrap;html=1;" parent="1" vertex="1">
          <mxGeometry x="379" y="220" width="360" height="160" as="geometry" />
        </mxCell>
        <mxCell id="OBhn1XiLiMjXEsDXxtLZ-9" value="Output" style="text;html=1;align=center;verticalAlign=middle;resizable=0;points=[];autosize=1;strokeColor=none;fillColor=none;" parent="1" vertex="1">
          <mxGeometry x="404" y="190" width="60" height="30" as="geometry" />
        </mxCell>
        <mxCell id="OBhn1XiLiMjXEsDXxtLZ-10" value="#MODIFIED / #ALL" style="text;html=1;align=center;verticalAlign=middle;resizable=0;points=[];autosize=1;strokeColor=none;fillColor=none;" parent="1" vertex="1">
          <mxGeometry x="378" y="420" width="130" height="30" as="geometry" />
        </mxCell>
        <mxCell id="OBhn1XiLiMjXEsDXxtLZ-11" value="10 / 25" style="rounded=0;whiteSpace=wrap;html=1;" parent="1" vertex="1">
          <mxGeometry x="378" y="450" width="361" height="40" as="geometry" />
        </mxCell>
        <mxCell id="OBhn1XiLiMjXEsDXxtLZ-13" value="" style="endArrow=none;html=1;rounded=0;strokeWidth=3;" parent="1" edge="1">
          <mxGeometry width="50" height="50" relative="1" as="geometry">
            <mxPoint x="40" y="510" as="sourcePoint" />
            <mxPoint x="744" y="510" as="targetPoint" />
          </mxGeometry>
        </mxCell>
        <mxCell id="OBhn1XiLiMjXEsDXxtLZ-14" value="Edit the updated-needed paragraphs" style="text;html=1;align=center;verticalAlign=middle;resizable=0;points=[];autosize=1;strokeColor=none;fillColor=none;fontStyle=1" parent="1" vertex="1">
          <mxGeometry x="30" y="520" width="230" height="30" as="geometry" />
        </mxCell>
        <mxCell id="OBhn1XiLiMjXEsDXxtLZ-15" value="Merge" style="rounded=1;whiteSpace=wrap;html=1;" parent="1" vertex="1">
          <mxGeometry x="140" y="860" width="120" height="30" as="geometry" />
        </mxCell>
        <mxCell id="OBhn1XiLiMjXEsDXxtLZ-16" value="Textbox" style="rounded=0;whiteSpace=wrap;html=1;" parent="1" vertex="1">
          <mxGeometry x="379" y="580" width="360" height="270" as="geometry" />
        </mxCell>
        <mxCell id="OBhn1XiLiMjXEsDXxtLZ-17" value="Output" style="text;html=1;align=center;verticalAlign=middle;resizable=0;points=[];autosize=1;strokeColor=none;fillColor=none;" parent="1" vertex="1">
          <mxGeometry x="404" y="550" width="60" height="30" as="geometry" />
        </mxCell>
        <mxCell id="OBhn1XiLiMjXEsDXxtLZ-18" value="Copy Updated Article" style="rounded=1;whiteSpace=wrap;html=1;" parent="1" vertex="1">
          <mxGeometry x="488.25" y="390" width="140.5" height="30" as="geometry" />
        </mxCell>
        <mxCell id="gVMeLIwjR7GzCSyjyXSI-1" value="Copy Revised Article" style="rounded=1;whiteSpace=wrap;html=1;" parent="1" vertex="1">
          <mxGeometry x="488.75" y="860" width="140.5" height="30" as="geometry" />
        </mxCell>
      </root>
    </mxGraphModel>
  </diagram>
</mxfile>
